# xmcd
#
# Track frame offsets: 
#        150
#        10332
#        21922
#        33670
#        47085
#        63401
#        77877
#        93263
#        111444
#        131141
#        147667
#        161047
#
# Disc length: 2290 seconds
#
# Revision: 0
# Processed by: cddbd v1.5.2PL0 Copyright (c) Steve Scherf et al.
# Submitted via: ExactAudioCopyFreeDBPlugin 1.0
#
DISCID=ac08f00c
DTITLE=Victor and Leo - Amor de Alma
DYEAR=2011
DGENRE=Sertanejo
TTITLE0=Boteco de Esquina
TTITLE1=Amor de Alma
TTITLE2=Venha Ver o Mar
TTITLE3=Mal Resolvido
TTITLE4=Lu
TTITLE5=Lágrimas
TTITLE6=Sexy Yemanjá
TTITLE7=Fuscão Preto (O Doutor e a Empregada) (O Fuscão e a Empregada)
TTITLE8=Passe Livre (Se Eu Não Puder Te Esquecer)
TTITLE9=Victor and Leo - Paula Fernandes - Sonhos e Ilusões em Mim
TTITLE10=Longe
TTITLE11=Se Não For Amor
EXTD=
EXTT0=
EXTT1=
EXTT2=
EXTT3=
EXTT4=
EXTT5=
EXTT6=
EXTT7=
EXTT8=
EXTT9=
EXTT10=
EXTT11=
PLAYORDER=
